@startuml

hide empty attributes
hide empty methods

class App {
	-{static}lang_resource : ResourceBundle
	-{static}num_locale : NumberFormat
}

/' plus utilisé ; mais pourrait l'être à nouveau
package lang {
	abstract class Lang {
		+ {method} {static} getLang() : Lang
		+ {method} {static} setLang( newInst : Lang )
	}
	
	class Fr
	Class En
	
	Lang <|-- Fr
	Lang <|-- En
}
'/

package model {
    class ModelRoom
    class ModelGame{
        Pet getPet()
        Room getRoom()
        void setRoom(Room new_room)
    }
    class ModelStat
    class ModelOption {
    	-language : string
	    -volume : double
	    -h_window : int
	    -w_window : int
    }
    class ModelSave {
    	-info_pet : list<string>
    	-info_opt : list<string>
    	-info_gme : list<string>
    	-info_usr : list<string>
    }
    interface ModelPet{
        void sethunger(Stat hunger)
        void setThrist(Stat thirst)
        void setWeight(Stat weight)
        void setHygiene(Stat hygiene)
        void setMoral(Stat moral)
        Stat getHunger()
        Stat getThirst()
        Stat getWeight()
        Stat getHygiene()
        Stat getMoral()
        String getType()
        String toString()
        int getStatsNumber()
    }
    class Robot
    class Animal
    
    ModelPet <|.. Robot
    ModelPet <|.. Animal
    Animal o--> ModelStat
    Robot o--> ModelStat
    ModelGame o--> ModelPet
    ModelGame o--> ModelRoom
    ModelGame ..> ModelSave
}

package view {
	class ViewMain
    class ViewPet
    class ViewRoom
    class ViewStat
    class ViewMenu
    class ViewCustomPet
    class ViewLoad
    class ViewAction
    class ViewOption
    class ViewGame
    class ViewHUD
    
    ViewMain o--> ViewGame
    ViewMain o--> ViewMenu
    ViewMenu *--> ViewOption
    ViewMenu *--> ViewCustomPet
    ViewMenu *--> ViewLoad
    ViewGame *--> ViewHUD
    ViewHUD  *--> ViewAction
    ViewHUD  o--> ViewStat
    ViewGame o--> ViewRoom
    ViewGame o--> ViewPet
}

package Controller {
    class ControllerMain {
    	-ModelSave
    }
    
    class ControllerPet {
        -ModelPet
        -ViewPet
    }
    class ControllerRoom {
        -ModelRoom
        -ViewRoom
    }
    class ControllerStat {
        -ModelStat
        -ViewStat
    }
    class ControllerMenu {
        -ModelOption
        -ViewMenu
    }
    class ControllerGame {
        -ModelGame
        -ViewGame
    }
    
    ControllerPet *--> ControllerStat
    ControllerGame *--> ControllerPet
    ControllerGame *--> ControllerRoom
    ControllerMain *--> ControllerGame 
    ControllerMain *--> ControllerMenu
    
}

App *--> ControllerMain

@enduml
